#!OML:ASF I:\Random Stuff\random\construction\7_22_03\Session 2\subj1.ASF
:FULLY-SPECIFIED
:DEGREES
975
root -9.32662 17.6164 -2.40854 0.304864 106.473 -4.35944
lowerback 2.82716 -0.484506 2.67455
upperback 0.796254 -0.443912 3.7832
thorax -0.760281 -0.185946 2.40042
lowerneck -13.9841 -10.9442 -8.79486
upperneck 35.8356 -15.4635 8.5189
head 16.7749 -5.96136 2.46321
rclavicle 3.24019e-014 -9.54166e-015
rhumerus -23.3378 -1.92665 -62.3321
rradius 50.2357
rwrist 25.7909
rhand -6.81286 2.23997
rfingers 7.12502
rthumb 19.0508 -26.847
lclavicle 3.24019e-014 -9.54166e-015
lhumerus -31.2157 -7.856 94.6638
lradius 34.2045
lwrist 16.0624
lhand -21.2563 50.8497
lfingers 7.12502
lthumb 5.12686 80.7677
rfemur -5.30357 10.5862 25.5787
rtibia 17.0236
rfoot -18.2176 -39.0764
rtoes 21.4878
lfemur -13.1313 -13.123 -11.6314
ltibia 25.2532
lfoot -10.7619 0.450303
ltoes -34.1807
976
root -9.33348 17.6168 -2.42497 0.284054 106.421 -4.38477
lowerback 2.81871 -0.520306 2.58266
upperback 0.816224 -0.495442 3.80072
thorax -0.732912 -0.211528 2.47165
lowerneck -14.1029 -10.9038 -8.81225
upperneck 35.8881 -15.3911 8.49348
head 16.821 -5.93287 2.46544
rclavicle 1.66979e-014 5.40694e-014
rhumerus -23.0645 -1.73149 -62.3543
rradius 50.2377
rwrist 25.9166
rhand -6.7718 2.08532
rfingers 7.12502
rthumb 19.0903 -26.9978
lclavicle 1.66979e-014 5.40694e-014
lhumerus -31.2119 -7.91412 94.7377
lradius 34.3572
lwrist 16.3335
lhand -21.4784 51.0482
lfingers 7.12502
lthumb 4.91242 80.9712
rfemur -5.34531 10.8164 25.5109
rtibia 17.1002
rfoot -18.2908 -39.2138
rtoes 21.3804
lfemur -13.0863 -13.1419 -11.7002
ltibia 25.1898
lfoot -10.8747 0.488659
ltoes -33.797
977
root -9.34102 17.6174 -2.44015 0.239929 106.372 -4.46962
lowerback 2.79577 -0.546241 2.47198
upperback 0.813422 -0.53437 3.82019
thorax -0.720735 -0.23107 2.555
lowerneck -14.3386 -10.8635 -8.81341
upperneck 36.0172 -15.2825 8.3529
head 16.9147 -5.89611 2.41798
rclavicle 3.69739e-014 -1.90833e-014
rhumerus -22.8622 -1.63469 -62.369
rradius 50.3601
rwrist 26.151
rhand -6.85544 1.95589
rfingers 7.12502
rthumb 19.0098 -27.1351
lclavicle 3.69739e-014 -1.90833e-014
lhumerus -31.232 -7.99639 94.7983
lradius 34.4535
lwrist 16.5694
lhand -21.6818 51.0796
lfingers 7.12502
lthumb 4.71604 81.0071
rfemur -5.42655 11.066 25.414
rtibia 17.1724
rfoot -18.5365 -39.309
rtoes 21.9988
lfemur -13.0925 -13.1203 -11.776
ltibia 25.1328
lfoot -10.9371 0.496418
ltoes -33.4007
978
root -9.34851 17.6159 -2.45582 0.332831 106.303 -4.40728
lowerback 2.77606 -0.503794 2.42338
upperback 0.776966 -0.479573 3.81613
thorax -0.748171 -0.204192 2.57626
lowerneck -14.7053 -10.9105 -8.79679
upperneck 36.4877 -15.3247 8.23921
head 17.2496 -5.88621 2.35233
rclavicle 2.5842e-015 -3.33958e-014
rhumerus -22.8988 -1.75692 -62.3202
rradius 50.6096
rwrist 26.5688
rhand -6.80522 2.0845
rfingers 7.12502
rthumb 19.0581 -27.0018
lclavicle 2.5842e-015 -3.33958e-014
lhumerus -31.274 -8.19033 94.8759
lradius 34.4731
lwrist 16.6705
lhand -21.9167 51.3242
lfingers 7.12502
lthumb 4.48923 81.2566
rfemur -5.48845 11.1909 25.3646
rtibia 17.2051
rfoot -18.654 -39.3096
rtoes 22.375
lfemur -13.0936 -13.1395 -11.8096
ltibia 25.0782
lfoot -10.9673 0.581115
ltoes -33.0942
979
root -9.35765 17.6139 -2.47385 0.725576 106.22 -4.01933
lowerback 2.79374 -0.447569 2.52505
upperback 0.733882 -0.400016 3.78387
thorax -0.805454 -0.165057 2.48351
lowerneck -14.8256 -10.91 -8.42833
upperneck 36.6189 -15.3118 7.89975
head 17.2588 -5.86601 2.1416
rclavicle -9.34288e-015 4.45278e-014
rhumerus -23.0324 -1.88531 -62.2907
rradius 50.9273
rwrist 26.9274
rhand -6.84862 2.55761
rfingers 7.12502
rthumb 19.0164 -26.5328
lclavicle -9.34288e-015 4.45278e-014
lhumerus -31.3049 -8.42157 94.8823
lradius 34.4442
lwrist 16.6645
lhand -22.0218 51.3416
lfingers 7.12502
lthumb 4.38776 81.2761
rfemur -5.53256 11.2085 25.4107
rtibia 17.2153
rfoot -18.5749 -39.2506
rtoes 22.0419
lfemur -13.0698 -13.5439 -11.7532
ltibia 25.034
lfoot -11.0719 1.12672
ltoes -33.2176
980
root -9.36759 17.6184 -2.49126 1.27431 106.177 -3.5153
lowerback 2.80249 -0.441456 2.65497
upperback 0.701547 -0.385355 3.78681
thorax -0.844855 -0.157726 2.41339
lowerneck -14.6157 -10.8872 -8.41657
upperneck 36.2943 -15.3074 7.98154
head 17.0387 -5.87884 2.17811
rclavicle 2.46493e-014 -1.27222e-014
rhumerus -23.013 -1.86367 -62.2882
rradius 51.223
rwrist 27.1191
rhand -7.06568 2.9256
rfingers 7.12502
rthumb 18.8076 -26.1852
lclavicle 2.46493e-014 -1.27222e-014
lhumerus -31.3064 -8.56617 94.845
lradius 34.4269
lwrist 16.6591
lhand -21.9592 51.087
lfingers 7.12502
lthumb 4.44815 81.0202
rfemur -5.62244 11.2019 25.4755
rtibia 17.2103
rfoot -18.5404 -39.2056
rtoes 21.8055
lfemur -13.1456 -13.2775 -11.6517
ltibia 25.0025
lfoot -11.1424 0.975733
ltoes -33.4003
981
root -9.37686 17.6213 -2.5074 1.59224 106.096 -3.27655
lowerback 2.785 -0.488893 2.57954
upperback 0.68287 -0.448677 3.85243
thorax -0.851684 -0.188677 2.52571
lowerneck -14.3556 -10.8333 -8.72758
upperneck 35.9021 -15.2671 8.35519
head 16.8454 -5.88662 2.4034
rclavicle -1.19271e-015 3.65764e-014
rhumerus -22.7885 -1.58201 -62.3384
rradius 51.4509
rwrist 27.0507
rhand -7.43094 2.85358
rfingers 7.12502
rthumb 18.4563 -26.2909
lclavicle -1.19271e-015 3.65764e-014
lhumerus -31.2966 -8.43043 94.8104
lradius 34.4576
lwrist 16.6353
lhand -21.8656 50.8611
lfingers 7.12502
lthumb 4.53854 80.7925
rfemur -5.7343 11.3033 25.4561
rtibia 17.1842
rfoot -18.4386 -39.2219
rtoes 21.8449
lfemur -13.2106 -13.4394 -11.6125
ltibia 24.9853
lfoot -11.3121 1.18343
ltoes -33.3386
982
root -9.38598 17.6214 -2.52567 1.71461 105.981 -3.17231
lowerback 2.80477 -0.532762 2.44359
upperback 0.691737 -0.508817 3.91131
thorax -0.850365 -0.218072 2.66516
lowerneck -14.5073 -10.7322 -8.75678
upperneck 35.91 -15.121 8.39322
head 16.8762 -5.82322 2.44873
rclavicle 2.24627e-014 -1.59028e-015
rhumerus -22.5499 -1.18661 -62.422
rradius 51.6317
rwrist 26.7557
rhand -8.08464 2.68357
rfingers 7.12502
rthumb 17.8274 -26.5193
lclavicle 2.24627e-014 -1.59028e-015
lhumerus -31.198 -8.05133 94.7528
lradius 34.3449
lwrist 16.3744
lhand -21.7851 50.7303
lfingers 7.12502
lthumb 4.61627 80.66
rfemur -5.77464 11.2365 25.3917
rtibia 17.1373
rfoot -18.1739 -39.0279
rtoes 21.6792
lfemur -13.1841 -13.718 -11.6372
ltibia 24.9676
lfoot -11.5614 1.52372
ltoes -33.3472
983
root -9.39637 17.6238 -2.5466 1.95059 105.894 -2.92408
lowerback 2.86218 -0.52129 2.47963
upperback 0.702055 -0.489733 3.90737
thorax -0.872845 -0.20851 2.64069
lowerneck -15.0778 -10.6488 -8.37163
upperneck 36.2792 -14.9527 7.94911
head 17.0906 -5.72778 2.20799
rclavicle 4.96962e-014 7.95139e-015
rhumerus -22.4627 -0.97838 -62.4978
rradius 51.8373
rwrist 26.6608
rhand -8.78385 2.82489
rfingers 7.12502
rthumb 17.1545 -26.4378
lclavicle 4.96962e-014 7.95139e-015
lhumerus -31.1425 -8.01536 94.7336
lradius 34.2649
lwrist 16.2751
lhand -21.8146 50.9971
lfingers 7.12502
lthumb 4.58776 80.9274
rfemur -5.80743 10.9249 25.3623
rtibia 17.1199
rfoot -17.8255 -38.6755
rtoes 20.8418
lfemur -13.1712 -13.4739 -11.6512
ltibia 24.9492
lfoot -11.6683 1.38663
ltoes -33.4622
984
root -9.40811 17.6273 -2.56578 2.22518 105.834 -2.64808
lowerback 2.9537 -0.523319 2.5071
upperback 0.693269 -0.486474 3.90128
thorax -0.933551 -0.207076 2.61984
lowerneck -14.935 -10.621 -8.27834
upperneck 36.005 -14.9077 7.86989
head 16.8806 -5.73118 2.16566
rclavicle 1.09332e-014 -2.54444e-014
rhumerus -22.4562 -0.77636 -62.6004
rradius 52.1209
rwrist 27.0963
rhand -9.78058 3.29574
rfingers 7.12502
rthumb 16.1949 -26.0478
lclavicle 1.09332e-014 -2.54444e-014
lhumerus -31.2391 -8.31532 94.7674
lradius 34.437
lwrist 16.6567
lhand -22.0063 51.5476
lfingers 7.12502
lthumb 4.40272 81.4818
rfemur -5.84855 10.7696 25.3586
rtibia 17.1192
rfoot -17.5626 -38.5299
rtoes 19.9666
lfemur -13.1741 -13.249 -11.6484
ltibia 24.9208
lfoot -11.7134 1.23108
ltoes -33.2238
985
root -9.41964 17.6284 -2.58243 2.50577 105.767 -2.36119
lowerback 3.0354 -0.553477 2.42197
upperback 0.68692 -0.523733 3.93751
thorax -0.983705 -0.225357 2.70746
lowerneck -14.9675 -10.6316 -8.42793
upperneck 36.0143 -14.9332 8.00765
head 16.932 -5.74246 2.24356
rclavicle 4.92986e-014 -1.27222e-014
rhumerus -22.5312 -0.381881 -62.7026
rradius 52.4462
rwrist 27.9353
rhand -11.6145 4.3219
rfingers 7.12502
rthumb 14.4285 -25.1566
lclavicle 4.92986e-014 -1.27222e-014
lhumerus -31.3046 -8.37385 94.7186
lradius 34.5289
lwrist 16.7078
lhand -21.9027 51.4706
lfingers 7.12502
lthumb 4.50274 81.4028
rfemur -5.88723 10.7202 25.3657
rtibia 17.1163
rfoot -17.3751 -38.4792
rtoes 19.5012
lfemur -13.1568 -13.3086 -11.6114
ltibia 24.888
lfoot -11.8311 1.2566
ltoes -32.1089
986
root -9.43099 17.6293 -2.60078 2.73146 105.639 -2.16274
lowerback 3.06209 -0.541778 2.33457
upperback 0.681318 -0.510142 3.93812
thorax -1.00398 -0.218773 2.757
lowerneck -14.9046 -10.6021 -8.41461
upperneck 35.8502 -14.9271 8.10216
head 16.8389 -5.73783 2.28258
rclavicle -5.36719e-015 3.33958e-014
rhumerus -22.7391 0.0793604 -62.8178
rradius 52.7519
rwrist 28.6473
rhand -14.4971 6.15949
rfingers 7.12502
rthumb 11.6498 -23.4966
lclavicle -5.36719e-015 3.33958e-014
lhumerus -31.2584 -8.24315 94.5808
lradius 34.3914
lwrist 16.2539
lhand -21.5366 50.9087
lfingers 7.12502
lthumb 4.85619 80.833
rfemur -5.97931 10.4835 25.3039
rtibia 17.096
rfoot -17.0707 -38.2024
rtoes 18.8397
lfemur -13.1668 -13.1637 -11.6119
ltibia 24.8717
lfoot -11.9767 1.17767
ltoes -30.9784
